<svg 
          width="67.42929077148438" 
          height="67.42713928222656" fill="none" 
          xmlns="http://www.w3.org/2000/svg">
          <path d="M 63.24978773437153 33.713521355457395 L 66.97624259296853 27.273235297626403 C 67.42411087785689 26.498383708650454 67.5459145788975 25.577386025610817 67.31487952833523 24.712745147024382 C 67.08384447777296 23.848104268437947 66.51888617744086 23.11060907832553 65.74421808420506 22.66242353173371 L 59.29717575747263 18.935969991411856 L 59.29717575747263 11.510061835254705 C 59.29717575747263 10.614846881744095 58.941555601415644 9.756298294895927 58.30854312577029 9.123285769776526 C 57.67553065012494 8.490273244657125 56.81697891133446 8.134649841762386 55.92176402779072 8.134649841762386 L 48.49923242385986 8.134649841762386 L 44.77615434186698 1.690988817775454 C 44.32650778694706 0.9177375462090936 43.59044563179612 0.3526558846834764 42.72727823734206 0.11804659613152896 C 42.29915360351795 0.0019860619578963012 41.852252691491046 -0.027940664530522158 41.412476025647415 0.030000927961168752 C 40.972699359803784 0.08794252045285966 40.54879552069337 0.23260035377945487 40.16534132681749 0.45558829091170927 L 33.718305438172 4.182042786887171 L 27.271269549526515 0.4522123188046087 C 26.496008850506193 0.004624910775029856 25.574701054431284 -0.11666917235115049 24.71001185717494 0.11501184265932962 C 23.845322659918597 0.34669285766980973 23.108078009266542 0.9123726074601103 22.66045653447703 1.687613650429285 L 18.934001675880033 8.134649841762386 L 11.511472486231776 8.134649841762386 C 10.61625760268804 8.134649841762386 9.757709082941034 8.490273244657125 9.124696607295679 9.123285769776526 C 8.491684131650324 9.756298294895927 8.136060756549869 10.614846881744095 8.136060756549869 11.510061835254705 L 8.136060756549869 18.932593214543825 L 1.6890238619532962 22.659049973909404 C 1.304335466690504 22.880325857606504 0.967160957863256 23.17543030795733 0.6968712062122583 23.527412771208315 C 0.4265814545612606 23.8793952344593 0.22850427882113344 24.28131552778463 0.1140199281768464 24.710082997863406 C -0.00046442246744063387 25.13885046794218 -0.02909949284860212 25.586015275887675 0.029759849438738915 26.02588321587331 C 0.08861919172607995 26.465751155858946 0.2338124060632533 26.889652010246714 0.45699854842896526 27.273235297626403 L 4.183453205835748 33.713521355457395 L 0.45699854842896526 40.15380741328839 C 0.011406378764417802 40.929390026975376 -0.10949000469454047 41.84968404717564 0.12066725295043758 42.71403843087051 C 0.35082451059541564 43.578392814565376 0.9133687295123156 44.3167024730379 1.6856486948709184 44.76799434652725 L 8.132685589467492 48.49444949637097 L 8.132685589467492 55.9169784613773 C 8.132685589467492 56.81219341488791 8.48830735504621 57.6707452207798 9.121319830691563 58.303757745899205 C 9.754332306336917 58.93677027101861 10.612882435605664 59.29239045486962 11.5080973191494 59.29239045486962 L 18.934001675880033 59.29239045486962 L 22.66045653447703 65.7394332854804 C 22.95928793508931 66.25026967176967 23.385954895492848 66.67450995922903 23.898484559319307 66.97042779654245 C 24.411014223145767 67.26634563385588 24.991750790809046 67.42374685181534 25.58356368468556 67.42713928222656 C 26.170885308750236 67.42713928222655 26.754829703532806 67.27186956318637 27.274643107087158 66.97145789053461 L 33.71492866156789 63.245002740690886 L 40.16196776925685 66.97145789053461 C 40.93702898817689 67.41841597551586 41.85772224873362 67.53971376808695 42.722098796392565 67.30874929209074 C 43.58647534405151 67.07778481609452 44.323956292613566 66.51341709068454 44.772777565262864 65.7394332854804 L 48.49585886629922 59.29239045486962 L 55.91839047023008 59.29239045486962 C 56.813605353773816 59.29239045486962 57.672157092564305 58.93677027101861 58.30516956820966 58.303757745899205 C 58.93818204385501 57.6707452207798 59.29380219991199 56.81219341488791 59.29380219991199 55.9169784613773 L 59.29380219991199 48.49444949637097 L 65.74083808855748 44.76799434652725 C 66.12486386384019 44.546072189504706 66.46138696904195 44.25064279177906 66.73117037521402 43.89858857906129 C 67.00095378138609 43.54653436634352 67.19870882643983 43.14475855275414 67.31312836868543 42.71623381869129 C 67.42754791093103 42.287709084628446 67.45639272840073 41.84083560014011 67.39800810700507 41.40115788551962 C 67.33962348560941 40.96148017089914 67.19515216063284 40.53762066110422 66.97286259732094 40.15380741328839 L 63.24978773437153 33.713521355457395 Z M 25.27639933736312 16.802708105012247 C 26.61966926061426 16.803155712462676 27.907744559106032 17.337196918050086 28.85726329772284 18.28734877594561 C 29.80678203633965 19.237500633841133 30.339964539301427 20.525932843882327 30.33951693188598 21.86920287211876 C 30.339069324470536 23.21247290035519 29.80502977014366 24.50054829951844 28.854877986508686 25.45006711234632 C 27.904726202873714 26.399585925174204 26.61629570305362 26.932768469807666 25.27302577980248 26.932320862357237 C 23.929755856551342 26.931873254906808 22.64168055805957 26.397830439797534 21.69216181944276 25.44767858190201 C 20.74264308082595 24.497526724006487 20.209460577864174 23.209096123487157 20.20990818527962 21.865826095250725 C 20.210355792695065 20.522556067014293 20.744395347021943 19.23448227737291 21.694547130656915 18.284963464545026 C 22.644698914291887 17.335444651717143 23.93312941411198 16.802260497561818 25.27639933736312 16.802708105012247 L 25.27639933736312 16.802708105012247 Z M 26.289023500076386 49.20666292063414 L 20.88836666401142 45.15954273007641 L 41.140837042102866 18.156248391659716 L 46.541493878167834 22.203368582217447 L 26.289023500076386 49.20666292063414 Z M 42.15345798577266 50.55682643041358 C 41.48833826754314 50.55660481753015 40.82977740068924 50.4253792696126 40.21537170048875 50.1706441927548 C 39.60096600028827 49.915909115897 39.042747999758845 49.54265156513506 38.57259402541294 49.07218414995835 C 38.102440051067035 48.60171673478165 37.72955729655453 48.04325741323711 37.475231762292886 47.42868206165053 C 37.22090622803124 46.814106710063946 37.090118758564294 46.15545465256375 37.090340391249796 45.490334882350794 C 37.0905620239353 44.82521511213784 37.221787541777324 44.16665097476939 37.476522598725914 43.5522452265491 C 37.731257655674504 42.937839478328804 38.10451517726395 42.37962460291717 38.574982555670566 41.90947064212323 C 39.04544993407718 41.439316681329295 39.60391243101797 41.066430628332284 40.21848773457148 40.81210507419344 C 40.833063038125 40.557779520054595 41.491715044147256 40.42699523956553 42.156834762376775 40.42721689211231 C 43.5001045850328 40.42766453959449 44.78817998411968 40.96170409562829 45.73769872273649 41.91185595352381 C 46.6872174613533 42.86200781141933 47.22039996431508 44.15043851253378 47.21995235689963 45.4937084401751 C 47.21950474948419 46.836978367816414 46.685461875518726 48.12505386757478 45.73531019247886 49.07457268040266 C 44.785158509439 50.02409149323054 43.49672780842869 50.55727399783226 42.15345798577266 50.55682643041358 L 42.15345798577266 50.55682643041358 Z" fill="rgb(0,0,0)"/>
        </svg>