<svg 
          width="67.2969970703125" 
          height="67.28571319580078" fill="none" 
          xmlns="http://www.w3.org/2000/svg">
          <path d="M 5.971106324877058 44.651859671116576 C 6.021178496808546 43.14969450135656 6.227726186439928 41.74141465470654 6.590749434062413 40.42702013116652 C 6.953772681684899 39.112625607626505 7.385645151723176 37.96722466568449 7.886366844177246 36.99081730534048 C 8.387088536631316 36.014409944996466 8.881551231656756 35.05052065161006 9.369754893439158 34.09914935355244 C 9.85795855522156 33.147778055494825 10.283571992016798 32.07748537204081 10.646595239639282 30.8882713031904 C 11.009618487261767 29.69905723433999 11.21616617689315 28.453511971623577 11.266238348824638 27.15163544341235 C 11.34134660448347 24.998532081175533 10.652854308696728 23.59651123218991 9.200761318206787 22.945572968084296 C 8.249390055985325 22.36974299828109 6.653339694863982 21.662473576123887 4.4126100199563165 20.82376466579827 C 2.1718803450486512 19.98505575547265 0.7010103622728171 19.39044872104745 0 19.039943526708246 C 0.6509382395861394 18.46411355690504 1.4833880492619105 17.71303093621062 2.497349500656128 16.786695772068217 C 3.511310952050345 15.860360607925811 4.393832956041609 15.065464824508588 5.144915512629918 14.402008565074185 C 5.895998069218227 13.738552305639782 6.597008431491044 13.156463266543366 7.247946671077184 12.655741555228163 C 5.695709435213888 11.629261998682544 4.919590745653426 10.164651029795342 4.919590745653426 8.261908433680107 C 4.919590745653426 6.884923646980878 5.457866601751318 5.676932513508468 6.53441824231829 4.63793496163406 C 7.6109698828852625 3.5989374097596523 8.775147917225956 3.0794385980080397 10.026952130453928 3.0794385980080397 C 11.1035037710209 3.0794385980080397 12.09242916107178 3.5113110843140456 12.99372822897775 4.375056056926057 C 13.89502729688372 5.238801029538068 14.608555725642614 6.196431325260081 15.13431351525443 7.247946944092094 C 14.959060924686225 6.0712508705704735 14.946542876107353 4.975922124830064 15.096759387425015 3.9619606352420513 C 15.246975898742678 2.9479991456540384 15.703884430124294 2.0341819768404203 16.46748505319868 1.2205092004300158 C 17.231085676273064 0.40683642401961095 18.301378247782594 0 19.678362982613702 0 C 21.080383707159335 0 22.282115869329445 0.5069807447940065 23.283559254237584 1.5209422343820196 C 24.285002639145723 2.5349037239700327 24.785724367414204 3.7679309197288373 24.785724367414204 5.220023964916067 C 24.785724367414204 6.396720038437689 24.422701155606124 7.473271719556097 23.696654660361155 8.44967907990011 C 23.896943348087106 8.47471516680891 24.084713987234185 8.51226929381451 24.259966577802388 8.56234146763211 C 24.43521916837059 8.612413641449711 24.585435688641855 8.656226790742112 24.71061611175537 8.693780919986112 C 24.835796534868887 8.731335049230113 24.97349500656128 8.800184283192912 25.12371151787894 8.900328630828115 C 25.273928029196604 9.000472978463318 25.392849436974288 9.069322212426117 25.48047573225839 9.106876341670118 C 25.568102027542494 9.144430470914118 25.680764411030736 9.244574809595719 25.81846288272313 9.407309375622122 C 25.95616135441552 9.570043941648525 26.05004666951226 9.670188280330125 26.100118841443745 9.707742409574125 C 26.15019101337523 9.745296538818126 26.25659436809724 9.876735991172128 26.419328927993774 10.10206076663613 C 26.58206348789031 10.327385542100133 26.682207822799683 10.471343039027735 26.7197619506291 10.533933252942136 C 26.757316078458516 10.596523466856537 26.86997846194676 10.77177607745654 27.05774910109384 11.059691062358143 C 27.24551974024092 11.347606047259745 27.3644411435418 11.529117677908149 27.414513315473286 11.60422593639615 C 28.165595872061594 12.705813751429769 28.87286530339186 14.358195366536975 29.53632153783526 16.561370996604214 C 30.19977777227866 18.764546626671454 30.7630897255343 20.89887292428627 31.226257290158955 22.964350032706296 C 31.68942485478361 25.029827141126322 32.008634959240844 26.262854372699536 32.18388754980905 26.663431763240343 C 33.61094440732684 27.89020003296357 35.156922717390316 28.922938515544768 36.82182233674186 29.761647425870386 C 38.486721956093405 30.600356336196004 40.02018227129962 31.0322287978796 41.422202995845254 31.057264884788403 C 42.9994763646807 31.082300971697205 44.695671186061844 30.625392398482397 46.51078731673105 29.686539167382385 C 48.32590344740025 28.747685936282373 50.02835733783884 27.564730865096355 51.61814870153155 26.137673953824336 C 53.207940065224264 24.710617042552318 54.7476593062303 23.12082561897551 56.23730642454965 21.368299539836276 C 57.726953542869005 19.615773460697042 59.00379381744032 17.950873778632232 60.067827463150024 16.373600350384212 C 61.13186110885973 14.796326922136192 61.976828985021584 13.369270010864172 62.60273109163557 12.092429616568156 C 62.978272369929726 13.14394523540017 63.27870539256505 14.089057464164577 63.50403015954154 14.927766374490194 C 63.729354926518035 15.76647528481581 63.90460752603984 16.86806309984943 64.02978794915336 18.232529747962236 C 64.15496837226688 19.596996396075042 64.11115522014802 20.83002366346266 63.898348501750405 21.931611478496283 C 63.68554178335278 23.033199293529904 63.20359713690622 24.20363629775831 62.45251458031791 25.442922562810327 C 61.7014320237296 26.682208827862343 60.66243443936323 27.765019578273964 59.33552197047643 28.69135474241637 C 59.38559414240792 28.74142691623397 59.72358131525666 28.78524006552637 60.349483421870644 28.82279419477037 C 60.97538552848463 28.86034832401437 61.6325827654994 28.935456582502376 62.321075132914956 29.048118970234377 C 63.00956750033051 29.16078135796638 63.741872993004115 29.542581648070776 64.51799161093577 30.19351991217639 C 65.29411022886741 30.844458176282007 65.86994021279472 31.73323921118041 66.24548149108887 32.859863088500425 C 64.91856902220206 32.859863088500425 63.741872993004115 33.266699512520034 62.71539347512382 34.08037228893044 C 61.68891395724352 34.89404506534085 61.037975771378996 35.726494978002066 60.76257882799421 36.57772188365647 C 61.63884183455684 36.37743318838607 62.82805585861206 36.69664326905287 64.33022097178868 37.535352179378485 C 65.8323860849653 38.3740610897041 66.82131143920176 39.494425969359725 67.2969970703125 40.89644674671653 C 66.17037323543003 40.99659109435173 65.28159223401015 41.384650426888534 64.63065399442401 42.06062475328054 C 63.97971575483787 42.73659907967255 63.32877758688054 43.93833121548057 62.6778393472944 45.66582116070459 C 61.826612473703925 47.9691410399174 60.4809228692736 49.85936564070386 58.64077060563224 51.33649467654866 C 56.800618341990884 52.813623712393465 54.76643637014501 53.79003110855189 52.53822483335223 54.2657167575807 C 50.310013296559454 54.74140240660951 47.94410310004865 54.904136954728706 45.4404946735927 54.753920437752704 C 42.936886247136755 54.6037039207767 40.57723511968341 54.1530543698487 38.36154157774789 53.40197178496869 C 36.14584803581238 52.65088920008868 34.14922019179591 51.68074083740906 32.371658188956125 50.49152676855865 C 30.594096186116335 49.30231269970824 29.29221970694406 48.006695169161404 28.46602889469692 46.6046743918046 C 30.218554907822185 50.66052035015665 32.759717605365175 53.82132627594591 36.08951684406826 56.08709202591472 C 39.41931608277134 58.352857775883535 42.92436810902187 59.498258764831974 46.604672636304585 59.52329485174077 C 49.3085698400225 59.54833093864957 52.0249851818553 58.697104008372754 54.75391837528774 56.96961406314873 C 53.97779975735609 58.74717613294554 52.74477253641402 60.33070863048678 51.05483678409032 61.7202114125148 C 49.36490103176662 63.10971419454282 47.524748768125264 64.18000687799683 45.53437999316625 64.93108946287684 C 43.54401121820723 65.68217204775685 41.647527762821746 66.24548398641686 39.844929627009805 66.62102527885686 C 38.042331491197864 66.99656657129687 36.40246786156084 67.20937330218727 34.925338881356375 67.25944547600487 C 25.636951455891122 67.53484242976327 18.43907676424299 65.64461791851285 13.331715379442489 61.5887719601608 C 8.224353994641987 57.53292600180875 5.770817637151108 51.88728876313751 5.971106324877058 44.651859671116576 Z M 14.383230958666122 10.778035093028139 C 13.356751440785828 10.778035093028139 12.48674750328064 11.134799320846144 11.773219074521746 11.848327776482153 C 11.059690645762853 12.561856232118162 10.702926431383405 13.431860202394569 10.702926431383405 14.458339758940188 C 10.702926431383405 15.484819315485806 11.059690645762853 16.354823285762212 11.773219074521746 17.06835174139822 C 12.48674750328064 17.78188019703423 13.356751440785828 18.138644424852234 14.383230958666122 18.138644424852234 C 15.409710476546415 18.138644424852234 16.2797144140516 17.78188019703423 16.993242842810496 17.06835174139822 C 17.70677127156939 16.354823285762212 18.063535485948837 15.484819315485806 18.063535485948837 14.458339758940188 C 18.063535485948837 13.431860202394569 17.70677127156939 12.561856232118162 16.993242842810496 11.848327776482153 C 16.2797144140516 11.134799320846144 15.409710476546415 10.778035093028139 14.383230958666122 10.778035093028139 Z" fill="rgb(0,0,0)"/>
        </svg>