<svg width="74" height="64" viewBox="0 0 74 64" fill="none" xmlns="http://www.w3.org/2000/svg">
<path d="M47.7925 39.6718C47.7925 45.9599 45.2946 51.9904 40.8482 56.4368C36.4019 60.8831 30.3713 63.3811 24.0832 63.3811C17.7951 63.3811 11.7646 60.8831 7.3182 56.4368C2.87184 51.9904 0.373901 45.9599 0.373901 39.6718C0.373901 26.5842 10.9957 0.15625 24.0832 0.15625C37.1707 0.15625 47.7925 26.5842 47.7925 39.6718Z" fill="black"/>
<path fill-rule="evenodd" clip-rule="evenodd" d="M48.3996 0.44892C45.2602 0.44892 42.7533 1.70465 42.7533 3.82314C42.7533 4.93884 43.5392 5.49444 44.2303 5.97776C44.7633 6.35719 45.2376 6.69145 45.2376 7.21091C45.2376 8.14593 41.9041 8.30855 38.0014 8.49374C32.4815 8.76477 25.8144 9.08096 25.8144 11.7279C25.8144 12.3269 26.0524 12.9014 26.4759 13.3249C26.8995 13.7485 27.4739 13.9865 28.0729 13.9865H68.7262C69.3252 13.9865 69.8996 13.7485 70.3232 13.3249C70.7467 12.9014 70.9847 12.3269 70.9847 11.7279C70.9847 9.08096 64.3176 8.76025 58.7977 8.49374C54.895 8.30855 51.5615 8.14593 51.5615 7.21091C51.5615 6.69145 52.0358 6.35267 52.5688 5.97776C53.2599 5.49444 54.0458 4.93884 54.0458 3.82314C54.0458 1.70465 51.5389 0.44892 48.3996 0.44892ZM27.5986 28.0931C26.1746 29.0178 25.0468 30.3327 24.35 31.881C23.6531 33.4293 23.4167 35.1455 23.6688 36.8245L27.3276 56.7943C27.6889 58.7216 28.7105 60.4627 30.2166 61.7183C31.7228 62.9738 33.6194 63.6653 35.5802 63.6737H61.2189C65.2752 63.6737 68.6765 60.7648 69.4624 56.7943L73.1303 36.8291C73.6497 33.5181 72.4708 29.9451 69.336 27.9621C67.5021 26.7696 67.1091 24.5202 69.336 23.5987C72.4617 22.4062 71.8565 18.5035 68.7262 18.5035H28.0729C24.9336 18.5035 24.4548 22.5372 27.5986 23.7297C29.8165 24.5202 29.4235 26.7696 27.5986 28.0931ZM51.5615 28.6668C51.5615 26.7154 51.0465 24.7189 50.2335 23.0205H33.0913C33.5043 23.9495 33.6871 24.9644 33.6244 25.9792C33.4708 28.5539 31.8943 30.5594 30.2411 31.7519L30.1282 31.8332L30.0107 31.91C29.3408 32.3587 28.8092 32.9852 28.4756 33.7193C28.1421 34.4534 28.0199 35.2659 28.1226 36.0657L31.7679 55.9406C31.9304 56.8354 32.3993 57.6458 33.0941 58.2326C33.7889 58.8195 34.6663 59.1462 35.5757 59.1567H61.2143C63.0212 59.1567 64.6292 57.8694 65.0222 55.9451L68.6674 36.0702C68.943 34.2318 68.2519 32.6237 66.9148 31.779L66.8652 31.7474C65.09 30.591 63.4548 28.5674 63.2967 25.9475C63.233 24.9448 63.4096 23.9413 63.8116 23.0205H55.4235C55.2517 23.7609 55.1683 24.519 55.1751 25.279C55.1751 27.4201 56.1553 29.2133 57.1806 31.0924C58.3054 33.1522 59.4843 35.3113 59.4843 38.1525C59.4843 42.3082 57.4291 44.8919 53.4677 44.8919C51.2543 44.8919 48.7519 43.171 48.7519 39.9955C48.7519 38.1661 49.3752 36.6439 50.0302 35.0358C50.771 33.22 51.566 31.2867 51.566 28.6668H51.5615Z" fill="black"/>
</svg>
