<svg 
          width="78.66697692871094" 
          height="54.079158782958984" fill="none" 
          xmlns="http://www.w3.org/2000/svg">
          <path d="M 78.66697692871094 27.037982940673828 C 78.66697692871094 24.496663093566895 76.47444248199463 19.853454113006592 71.65914916992188 15.668113708496094 C 68.91063213348389 13.304001808166504 65.77824449539185 11.427068591117859 62.397308349609375 10.118389129638672 C 62.284857749938965 10.076331846415997 62.16079044342041 10.07756869867444 62.04920196533203 10.12186336517334 C 61.93761348724365 10.16615803539753 61.84646987915039 10.2503472417593 61.79347610473633 10.358077049255371 C 61.7704291343689 10.402634620666504 61.7473840713501 10.4456567466259 61.72126388549805 10.490214347839355 L 60.2477912902832 12.933197975158691 C 57.762940883636475 17.22398090362549 56.45532958069816 22.094897270202637 56.457218170166016 27.053255081176758 C 56.45910675963387 32.01161193847656 57.77042627334595 36.88153266906738 60.258544921875 41.1704216003418 L 60.293888092041016 41.230342864990234 L 61.63676071166992 43.688690185546875 C 61.708014488220215 43.81925964355469 61.824203968048096 43.919559478759766 61.96377944946289 43.97098159790039 C 62.10335445404053 44.022403717041016 62.2568416595459 44.021461486816406 62.395774841308594 43.96833038330078 C 73.69342803955078 39.547908782958984 78.66697692871094 30.95444107055664 78.66697692871094 27.037982940673828 Z M 64.23645782470703 27.01647186279297 C 63.72731637954712 27.08306121826172 63.210111141204834 26.98855209350586 62.75741958618164 26.746212005615234 C 62.30472803115845 26.503870010375977 61.93928050994873 26.125861167907715 61.712371826171875 25.665241241455078 C 61.48546314239502 25.204620361328125 61.40848207473755 24.684511184692383 61.49223327636719 24.17790985107422 C 61.575984477996826 23.67130947113037 61.81626510620117 23.20364761352539 62.17934799194336 22.840564727783203 C 62.542431354522705 22.477481842041016 63.01009225845337 22.237201690673828 63.516693115234375 22.15345001220703 C 64.02329397201538 22.06969928741455 64.54340839385986 22.146679878234863 65.0040283203125 22.37358856201172 C 65.46464920043945 22.600497245788574 65.84265041351318 22.965944290161133 66.08499145507812 23.418636322021484 C 66.32733249664307 23.87132740020752 66.42184352874756 24.388540267944336 66.35525512695312 24.897682189941406 C 66.28498363494873 25.434990882873535 66.03914642333984 25.934027671813965 65.65597534179688 26.317197799682617 C 65.27280521392822 26.700368881225586 64.77376699447632 26.946199417114258 64.23645782470703 27.01647186279297 ZM 51.540138244628906 27.038043975830078 C 51.538017719984055 21.209249019622803 53.07962775230408 15.483864784240723 56.00818634033203 10.444182395935059 L 56.0266227722168 10.41191577911377 L 56.73646926879883 9.233443260192871 C 56.787772350013256 9.149483375251293 56.818169156089425 9.05443450808525 56.82509994506836 8.95628547668457 C 56.832030734047294 8.85813644528389 56.81529750302434 8.759757488965988 56.776302337646484 8.669421195983887 C 56.73730717226863 8.579084903001785 56.67719282954931 8.499430660158396 56.60101318359375 8.43715763092041 C 56.52483353763819 8.374884601682425 56.43481094390154 8.331812672317028 56.338523864746094 8.311562538146973 C 54.349509596824646 7.895534425973892 52.333895444869995 7.618809789419174 50.30635452270508 7.483405590057373 C 50.06726652383804 7.4679628647863865 49.838014006614685 7.382462456822395 49.6472053527832 7.237570762634277 C 46.68489360809326 4.985107660293579 40.812509536743164 1.045602422207594 34.8264274597168 0.03306947275996208 C 34.41736814379692 -0.03471144661307335 33.99780812859535 0.0020746439695358276 33.60678482055664 0.14000405371189117 C 33.21576151251793 0.2779334634542465 32.865979582071304 0.5125246047973633 32.5899772644043 0.8219538927078247 C 32.31397494673729 1.1313831806182861 32.120719254016876 1.505595713853836 32.028194427490234 1.9097775220870972 C 31.935669600963593 2.3139593303203583 31.946881882846355 2.734977811574936 32.06078338623047 3.1336634159088135 L 33.69251251220703 8.844717025756836 C 33.73494694754481 8.992715835571289 33.72028598189354 9.151252567768097 33.651432037353516 9.288960456848145 C 33.58257809281349 9.426668345928192 33.46454605460167 9.533515721559525 33.32068634033203 9.588367462158203 C 27.658799171447754 11.691792964935303 22.782047510147095 15.54218578338623 19.225122451782227 18.47684097290039 C 19.00743418931961 18.65501993894577 18.73521500825882 18.753138285363093 18.453908920288086 18.75481605529785 C 18.172602832317352 18.75649382523261 17.89923383295536 18.661628901958466 17.67943572998047 18.486059188842773 C 17.195960223674774 18.101942002773285 16.699678897857666 17.72345858812332 16.190595626831055 17.350608825683594 C 10.1000337600708 12.902531623840332 2.9447006583213806 12.317138155922294 2.643552780151367 12.29562759399414 C 2.261198341846466 12.26674034819007 1.8773878514766693 12.327695280313492 1.5227957963943481 12.47361946105957 C 1.168203741312027 12.619543641805649 0.8526628613471985 12.846389830112457 0.6013915538787842 13.136031150817871 C 0.3501202464103699 13.425672471523285 0.17008604109287262 13.770075798034668 0.07567764073610306 14.141716003417969 C -0.018730759620666504 14.51335620880127 -0.02489553764462471 14.90192773938179 0.05767601355910301 15.276375770568848 C 0.12220769748091698 15.572914212942123 1.4696910381317139 21.528266429901123 4.928282260894775 26.279027938842773 C 5.083976820111275 26.491962775588036 5.167893409729004 26.748909324407578 5.167893409729004 27.012693405151367 C 5.167893409729005 27.276477485895157 5.083976820111275 27.533420220017433 4.928282260894775 27.746355056762695 C 1.4696910381317139 32.49557971954346 0.12220769748091698 38.45246973633766 0.05767601355910301 38.74900817871094 C -0.02489553764462471 39.123456209897995 -0.018730759620666504 39.5120267868042 0.07567764073610306 39.8836669921875 C 0.17008604109287262 40.2553071975708 0.3501202464103699 40.59971338510513 0.6013915538787842 40.88935470581055 C 0.8526628613471985 41.17899602651596 1.168203741312027 41.40583744645119 1.5227957963943481 41.551761627197266 C 1.8773878514766693 41.697685807943344 2.261198341846466 41.7586426474154 2.643552780151367 41.72975540161133 C 2.9508465230464935 41.708244839683175 10.100035190582275 41.1151704788208 16.18291473388672 36.67784881591797 C 16.679706275463104 36.31319358944893 17.16471853852272 35.94341415166855 17.637950897216797 35.56851577758789 C 17.857924208045006 35.39316213130951 18.13138845562935 35.2985720790457 18.412694931030273 35.30052947998047 C 18.694001406431198 35.30248688091524 18.966125816106796 35.40087543427944 19.183637619018555 35.57927322387695 C 22.755927324295044 38.527756690979004 27.641897201538086 42.38275623321533 33.319149017333984 44.49079132080078 C 33.46267046034336 44.5456273406744 33.58044908195734 44.65222945809364 33.64927291870117 44.78959274291992 C 33.718096755445 44.9269560277462 33.732974611222744 45.08511784672737 33.690975189208984 45.232906341552734 L 32.0531005859375 50.94549560546875 C 31.939199082553387 51.34418120980263 31.927986800670624 51.76519837975502 32.020511627197266 52.16938018798828 C 32.11303645372391 52.57356199622154 32.30629214644432 52.947776675224304 32.58229446411133 53.257205963134766 C 32.858296781778336 53.56663525104523 33.20807871222496 53.80122235417366 33.59910202026367 53.939151763916016 C 33.99012532830238 54.07708117365837 34.40968534350395 54.11387009173632 34.81874465942383 54.04608917236328 C 37.45532488822937 53.600513219833374 42.78994846343994 52.070191383361816 49.57653045654297 46.850807189941406 C 49.770383477211 46.702878296375275 50.00320838391781 46.614763805642724 50.246429443359375 46.597286224365234 C 52.27143359184265 46.46465227007866 54.284881711006165 46.19256553053856 56.272457122802734 45.782958984375 C 56.3662730678916 45.76326828636229 56.454182758927345 45.72190774232149 56.52915954589844 45.66217803955078 C 56.60413633286953 45.60244833678007 56.66410030052066 45.526006273925304 56.704261779785156 45.43896484375 C 56.744423259049654 45.351923413574696 56.76367137231864 45.256694942712784 56.760459899902344 45.160888671875 C 56.75724842748605 45.065082401037216 56.73166824877262 44.97135600447655 56.685768127441406 44.88719940185547 L 55.992820739746094 43.613468170166016 C 53.0728440284729 38.57766771316528 51.53667810210027 32.859172344207764 51.540138244628906 27.038043975830078 Z" fill="rgb(0,0,0)"/>
        </svg>