<svg width="70" height="69" viewBox="0 0 70 69" fill="none" xmlns="http://www.w3.org/2000/svg">
<path d="M15.2053 13.5567C13.2669 5.80331 22.352 1.92662 30.7121 5.80331C32.4702 6.61936 32.5496 8.35418 30.7121 7.74166C24.897 5.80331 19.082 9.68001 22.9587 15.4951C25.1083 18.7205 16.692 19.5036 15.2053 13.5567Z" fill="black"/>
<path d="M12.6778 10.2266C10.7395 2.47318 19.8245 -1.40352 28.1846 2.47318C29.9427 3.28922 30.0241 5.02405 28.1846 4.41153C22.3696 2.47318 16.5545 6.34988 20.4312 12.1649C22.5828 15.3903 14.1645 16.1715 12.6778 10.2266Z" fill="black"/>
<path d="M10.4756 27.6717C10.4756 35.4251 6.59886 37.0281 6.59886 35.4251C6.59886 31.5484 4.66051 35.4251 4.66051 33.4868V27.6717C4.66051 24.4599 5.96114 21.8567 7.56803 21.8567C9.17492 21.8567 10.4756 24.4599 10.4756 27.6717Z" fill="black"/>
<path d="M68.9343 19.3464C67.6163 16.1617 64.4509 14.1032 60.8728 14.1032C60.3587 14.1032 59.8656 14.3074 59.5021 14.6709C59.1386 15.0344 58.9344 15.5274 58.9344 16.0415C58.9344 16.5556 59.1386 17.0486 59.5021 17.4121C59.8656 17.7756 60.3587 17.9799 60.8728 17.9799C62.877 17.9799 64.6351 19.0983 65.3542 20.8312C66.0152 22.4284 65.6799 24.2388 64.4723 25.962C62.5649 23.0428 59.4287 20.8874 55.0596 20.8874C50.4251 20.8874 40.9504 22.2714 34.0712 23.3859C33.9679 23.1946 33.8567 23.0078 33.7378 22.8257C29.8611 17.0107 25.9844 7.01462 20.1694 7.01462C12.416 7.01462 0.785889 16.6792 0.785889 24.7641C0.785889 29.6952 11.9081 30.4415 15.2964 30.5559C16.6474 33.3277 18.0372 36.243 19.6228 38.9489C19.7507 39.3463 19.9232 39.7805 20.1694 40.2728C25.9844 51.9029 26.2151 68.3789 28.8919 68.3789C31.5688 68.3789 33.7378 58.9643 33.7378 50.9337C33.7378 50.641 33.7301 50.3542 33.7242 50.0673C39.7835 51.3253 46.5309 50.6914 52.4816 48.8849C55.2884 58.6639 55.9125 68.3808 57.9672 68.3808C60.5684 68.3808 62.6832 51.2884 62.8014 42.9497C65.362 40.1565 66.6878 36.8303 66.6878 33.4866C66.6878 32.3139 66.5211 31.1025 66.2071 29.9143C69.3356 26.7276 70.361 22.7889 68.9343 19.3464Z" fill="black"/>
</svg>
