<svg 
          width="67.42857360839844" 
          height="67.42857360839844" fill="none" 
          xmlns="http://www.w3.org/2000/svg">
          <path d="M 33.71428680419922 0 C 15.124748229980469 0 0 15.124748229980469 0 33.71428680419922 C 0 52.30382537841797 15.124748229980469 67.42857360839844 33.71428680419922 67.42857360839844 C 52.30382537841797 67.42857360839844 67.42857360839844 52.30382537841797 67.42857360839844 33.71428680419922 C 67.42857360839844 15.124748229980469 52.30382537841797 0 33.71428680419922 0 Z M 33.71428680419922 5.1868133544921875 C 49.44329833984375 5.1868133544921875 62.24176025390625 17.985275268554688 62.24176025390625 33.71428680419922 C 62.24176025390625 49.44329833984375 49.44329833984375 62.24176025390625 33.71428680419922 62.24176025390625 C 17.985275268554688 62.24176025390625 5.1868133544921875 49.44329833984375 5.1868133544921875 33.71428680419922 C 5.1868133544921875 17.985275268554688 17.985275268554688 5.1868133544921875 33.71428680419922 5.1868133544921875 Z M 28.52747344970703 15.560440063476562 C 27.839658737182617 15.560440063476562 27.180015563964844 15.833673477172852 26.69365882873535 16.320032119750977 C 26.207300186157227 16.80638885498047 25.934066772460938 17.466033935546875 25.934066772460938 18.153846740722656 C 25.934066772460938 18.84166145324707 26.207300186157227 19.501304626464844 26.69365882873535 19.98766326904297 C 27.180015563964844 20.47402000427246 27.839658737182617 20.74725341796875 28.52747344970703 20.74725341796875 C 29.215288162231445 20.74725341796875 29.874929428100586 20.47402000427246 30.36128807067871 19.98766326904297 C 30.847646713256836 19.501304626464844 31.120880126953125 18.84166145324707 31.120880126953125 18.153846740722656 C 31.120880126953125 17.466033935546875 30.847646713256836 16.80638885498047 30.36128807067871 16.320032119750977 C 29.874929428100586 15.833673477172852 29.215288162231445 15.560440063476562 28.52747344970703 15.560440063476562 Z M 42.79121017456055 18.153846740722656 C 41.759490966796875 18.153846740722656 40.770023345947266 18.563697814941406 40.040489196777344 19.29323387145996 C 39.310951232910156 20.02277183532715 38.901100158691406 21.012235641479492 38.901100158691406 22.043956756591797 C 38.901100158691406 23.075679779052734 39.310951232910156 24.065143585205078 40.040489196777344 24.794681549072266 C 40.770023345947266 25.52421760559082 41.759490966796875 25.934066772460938 42.79121017456055 25.934066772460938 C 43.822933197021484 25.934066772460938 44.81239318847656 25.52421760559082 45.54193115234375 24.794681549072266 C 46.27146911621094 24.065143585205078 46.68132019042969 23.075679779052734 46.68132019042969 22.043956756591797 C 46.68132019042969 21.012235641479492 46.27146911621094 20.02277183532715 45.54193115234375 19.29323387145996 C 44.81239318847656 18.563697814941406 43.822933197021484 18.153846740722656 42.79121017456055 18.153846740722656 Z M 20.74725341796875 25.934066772460938 C 19.371625900268555 25.934066772460938 18.052339553833008 26.48053550720215 17.07962417602539 27.453250885009766 C 16.10690689086914 28.425968170166016 15.560440063476562 29.745250701904297 15.560440063476562 31.120880126953125 C 15.560440063476562 32.49650955200195 16.10690689086914 33.815792083740234 17.07962417602539 34.788509368896484 C 18.052339553833008 35.761226654052734 19.371625900268555 36.30769348144531 20.74725341796875 36.30769348144531 C 22.122882843017578 36.30769348144531 23.442167282104492 35.761226654052734 24.41488265991211 34.788509368896484 C 25.38759994506836 33.815792083740234 25.934066772460938 32.49650955200195 25.934066772460938 31.120880126953125 C 25.934066772460938 29.745250701904297 25.38759994506836 28.425968170166016 24.41488265991211 27.453250885009766 C 23.442167282104492 26.48053550720215 22.122882843017578 25.934066772460938 20.74725341796875 25.934066772460938 Z M 36.30769348144531 31.120880126953125 C 35.61988067626953 31.120880126953125 34.960235595703125 31.394113540649414 34.473876953125 31.88047218322754 C 33.987518310546875 32.36682891845703 33.71428680419922 33.02647399902344 33.71428680419922 33.71428680419922 C 33.71428680419922 34.402103424072266 33.987518310546875 35.061744689941406 34.473876953125 35.54810333251953 C 34.960235595703125 36.034461975097656 35.61988067626953 36.30769348144531 36.30769348144531 36.30769348144531 C 36.99551010131836 36.30769348144531 37.655155181884766 36.034461975097656 38.14151382446289 35.54810333251953 C 38.62786865234375 35.061744689941406 38.901100158691406 34.402103424072266 38.901100158691406 33.71428680419922 C 38.901100158691406 33.02647399902344 38.62786865234375 32.36682891845703 38.14151382446289 31.88047218322754 C 37.655155181884766 31.394113540649414 36.99551010131836 31.120880126953125 36.30769348144531 31.120880126953125 Z M 49.27472686767578 33.71428680419922 C 48.5869140625 33.71428680419922 47.927268981933594 33.987518310546875 47.44091033935547 34.473876953125 C 46.954551696777344 34.960235595703125 46.68132019042969 35.61988067626953 46.68132019042969 36.30769348144531 C 46.68132019042969 36.99551010131836 46.954551696777344 37.655155181884766 47.44091033935547 38.14151382446289 C 47.927268981933594 38.62786865234375 48.5869140625 38.901100158691406 49.27472686767578 38.901100158691406 C 49.96253967285156 38.901100158691406 50.62218475341797 38.62786865234375 51.108543395996094 38.14151382446289 C 51.59490203857422 37.655155181884766 51.868133544921875 36.99551010131836 51.868133544921875 36.30769348144531 C 51.868133544921875 35.61988067626953 51.59490203857422 34.960235595703125 51.108543395996094 34.473876953125 C 50.62218475341797 33.987518310546875 49.96253967285156 33.71428680419922 49.27472686767578 33.71428680419922 Z M 24.63736343383789 41.4945068359375 C 23.605642318725586 41.4945068359375 22.61617660522461 41.90435791015625 21.886640548706055 42.63389587402344 C 21.157102584838867 43.363433837890625 20.74725341796875 44.35289764404297 20.74725341796875 45.384620666503906 C 20.74725341796875 46.41633987426758 21.157102584838867 47.405799865722656 21.886640548706055 48.135337829589844 C 22.61617660522461 48.86487579345703 23.605642318725586 49.27472686767578 24.63736343383789 49.27472686767578 C 25.669084548950195 49.27472686767578 26.658550262451172 48.86487579345703 27.388086318969727 48.135337829589844 C 28.117624282836914 47.405799865722656 28.52747344970703 46.41633987426758 28.52747344970703 45.384620666503906 C 28.52747344970703 44.35289764404297 28.117624282836914 43.363433837890625 27.388086318969727 42.63389587402344 C 26.658550262451172 41.90435791015625 25.669084548950195 41.4945068359375 24.63736343383789 41.4945068359375 Z M 42.79121017456055 44.087913513183594 C 41.759490966796875 44.087913513183594 40.770023345947266 44.497764587402344 40.040489196777344 45.22730255126953 C 39.310951232910156 45.95684051513672 38.901100158691406 46.9463005065918 38.901100158691406 47.978023529052734 C 38.901100158691406 49.009742736816406 39.310951232910156 49.999210357666016 40.040489196777344 50.7287483215332 C 40.770023345947266 51.458282470703125 41.759490966796875 51.868133544921875 42.79121017456055 51.868133544921875 C 43.822933197021484 51.868133544921875 44.81239318847656 51.458282470703125 45.54193115234375 50.7287483215332 C 46.27146911621094 49.999210357666016 46.68132019042969 49.009742736816406 46.68132019042969 47.978023529052734 C 46.68132019042969 46.9463005065918 46.27146911621094 45.95684051513672 45.54193115234375 45.22730255126953 C 44.81239318847656 44.497764587402344 43.822933197021484 44.087913513183594 42.79121017456055 44.087913513183594 ZM 29.43022346496582 60.19328308105469 C 30.631771683692932 60.86308568716049 32.05018353462219 61.02813854813576 33.37342834472656 60.652137756347656 C 34.69667315483093 60.27613681554794 35.81635767221451 59.389883637428284 36.48616027832031 58.18833541870117 C 37.15596264600754 56.98678755760193 37.32101607322693 55.56837320327759 36.94501495361328 54.2451286315918 C 36.56901407241821 52.92188370227814 35.68275701999664 51.80219930410385 34.48120880126953 51.13239669799805 C 33.27966058254242 50.46259409189224 31.86124849319458 50.29754081368446 30.53800392150879 50.67354202270508 C 29.21475911140442 51.04954260587692 28.095074355602264 51.935800313949585 27.42527198791504 53.13734817504883 C 26.755469381809235 54.33889639377594 26.59041628241539 55.75730621814728 26.96641731262207 57.08055114746094 C 27.342418015003204 58.40379571914673 28.22867524623871 59.52348047494888 29.43022346496582 60.19328308105469 Z M 8.301027297973633 39.50740432739258 C 8.901800155639648 39.842304944992065 9.611007034778595 39.924835324287415 10.272629737854004 39.73683547973633 C 10.934252917766571 39.548834800720215 11.494094640016556 39.10570228099823 11.828995704650879 38.50492858886719 C 12.163896769285202 37.904154896736145 12.246427044272423 37.19494754076004 12.058425903320312 36.5333251953125 C 11.8704252243042 35.87170201539993 11.427292823791504 35.31186366081238 10.826519966125488 34.97696304321289 C 10.225743770599365 34.642060577869415 9.516540706157684 34.55952739715576 8.854917526245117 34.747528076171875 C 8.193294823169708 34.93552792072296 7.63345405459404 35.37866127490997 7.298552989959717 35.979434967041016 C 6.963651925325394 36.58020865917206 6.881120204925537 37.2894189953804 7.06912088394165 37.95104217529297 C 7.257122024893761 38.61266452074051 7.70025110244751 39.1725018620491 8.301027297973633 39.50740432739258 ZM 39.71061706542969 12.368608474731445 C 39.62976562976837 10.995358109474182 39.006701588630676 9.710472047328949 37.97849655151367 8.796607971191406 C 36.95029127597809 7.8827438950538635 35.601170897483826 7.414760708808899 34.22792053222656 7.495612144470215 C 32.85467064380646 7.576463550329208 31.569783747196198 8.19952642917633 30.655920028686523 9.227731704711914 C 29.74205583333969 10.255936980247498 29.2740718126297 11.60506021976471 29.354923248291016 12.978310585021973 C 29.43577468395233 14.351560950279236 30.058838367462158 15.636446416378021 31.08704376220703 16.550310134887695 C 32.115248680114746 17.464174330234528 33.4643737077713 17.932158321142197 34.837623596191406 17.851306915283203 C 36.21087396144867 17.770455479621887 37.49575811624527 17.14739179611206 38.40962219238281 16.119186401367188 C 39.32348608970642 15.090981483459473 39.791468501091 13.741858839988708 39.71061706542969 12.368608474731445 Z M 33.62052536010742 41.30404281616211 C 33.58009972423315 40.61741906404495 33.26857304573059 39.97497230768204 32.75447082519531 39.51803970336914 C 32.24036765098572 39.06110715866089 31.5657998919487 38.82711657509208 30.879175186157227 38.8675422668457 C 30.192550480365753 38.90796795859933 29.550105571746826 39.21949750185013 29.09317398071289 39.73360061645508 C 28.63624143600464 40.24770379066467 28.402254723012447 40.922270596027374 28.44268035888672 41.60889434814453 C 28.483106218278408 42.295521914958954 28.794633626937866 42.93796110153198 29.30873680114746 43.394893646240234 C 29.82283902168274 43.85182625055313 30.497402012348175 44.0858167745173 31.18402671813965 44.04539108276367 C 31.870651423931122 44.004965391010046 32.513099193573 43.69343590736389 32.97003173828125 43.1793327331543 C 33.426963329315186 42.66522961854935 33.66095121949911 41.99067038297653 33.62052536010742 41.30404281616211 ZM 63.94769287109375 36.558109283447266 C 64.45290678739548 35.27861225605011 64.42914962768555 33.85082542896271 63.881649017333984 32.588844299316406 C 63.33414822816849 31.326863050460815 62.30775249004364 30.334063708782196 61.028255462646484 29.82884979248047 C 59.74875891208649 29.323636054992676 58.32097136974335 29.34739464521408 57.058990478515625 29.894895553588867 C 55.797009229660034 30.44239628314972 54.80420607328415 31.46879017353058 54.29899215698242 32.748287200927734 C 53.793778240680695 34.02778422832489 53.81753879785538 35.45557129383087 54.36503982543945 36.717552185058594 C 54.91254025697708 37.979533314704895 55.938936829566956 38.972336769104004 57.21843338012695 39.4775505065918 C 58.49793040752411 39.982764422893524 59.92571711540222 39.95900374650955 61.18769836425781 39.411502838134766 C 62.449679255485535 38.86400228738785 63.44247895479202 37.83760631084442 63.94769287109375 36.558109283447266 Z M 46.23415756225586 60.23466491699219 C 46.48676401376724 59.59491777420044 46.47488737106323 58.881021440029144 46.20113754272461 58.250030517578125 C 45.92738685011864 57.61903923749924 45.41418498754501 57.12264007329941 44.774436950683594 56.870033264160156 C 44.134688913822174 56.617426455020905 43.42079293727875 56.629302233457565 42.78980255126953 56.903053283691406 C 42.15881127119064 57.17680397629738 41.66241556406021 57.690006732940674 41.40980911254883 58.32975387573242 C 41.15720126032829 58.969504594802856 41.16907462477684 59.68339318037033 41.44282531738281 60.31438446044922 C 41.716575145721436 60.94537538290024 42.22977787256241 61.441774904727936 42.86952590942383 61.69438171386719 C 43.50927394628525 61.94698852300644 44.223169028759 61.93511238694191 44.85416030883789 61.66136169433594 C 45.48515069484711 61.3876106441021 45.981549710035324 60.87441563606262 46.23415756225586 60.23466491699219 Z" fill="rgb(0,0,0)"/>
        </svg>